# xmcd CD database file
#
# Track frame offsets:
#	150
#	25175
#	46292
#	66092
#	88317
#	97365
#	115790
#	135152
#	155962
#	171497
#
# Disc length: 2614 seconds
#
# Revision: 2
# Processed by: cddbd v1.5.2PL0 Copyright (c) Steve Scherf et al.
# Submitted via: CDex 1.51
#
DISCID=8c0a340a
DTITLE=潘越雲 - 純情青春夢
DYEAR=1992
DGENRE=Taiwanese Pop
TTITLE0=純情青春夢
TTITLE1=西子灣之戀
TTITLE2=茶室春秋
TTITLE3=春嬌和志明
TTITLE4=貓
TTITLE5=看見船就流眼淚
TTITLE6=歸鄉
TTITLE7=舞池
TTITLE8=再會夜都市
TTITLE9=紅娘
EXTD=YEAR: 1992
EXTT0=
EXTT1=
EXTT2=
EXTT3=
EXTT4=
EXTT5=
EXTT6=
EXTT7=
EXTT8=
EXTT9=
PLAYORDER=
